<?xml version="1.0" encoding="UTF-8"?>
<svg version="1.1" xmlns="http://www.w3.org/2000/svg" width="1006" height="1038">
<path d="M0 0 C331.98 0 663.96 0 1006 0 C1006 342.54 1006 685.08 1006 1038 C674.02 1038 342.04 1038 0 1038 C0 695.46 0 352.92 0 0 Z " fill="#FEFEFE" transform="translate(0,0)"/>
<path d="M0 0 C1.40491629 0.05105637 2.80979286 0.10321618 4.21463013 0.15640259 C5.66332097 0.17507218 7.1120753 0.18929818 8.56085205 0.19927979 C12.36018581 0.23732558 16.1556488 0.33540976 19.95346069 0.44631958 C24.5173949 0.5669922 29.08262961 0.61258566 33.64770508 0.67085266 C40.57113648 0.7675859 47.48608997 0.95919299 54.40994263 1.13296509 C54.40994263 17.63296509 54.40994263 34.13296509 54.40994263 51.13296509 C23.38994263 51.13296509 -7.63005737 51.13296509 -39.59005737 51.13296509 C-32.83695524 38.75227785 -32.83695524 38.75227785 -29.49630737 33.06655884 C-29.14169434 32.46215469 -28.7870813 31.85775055 -28.42172241 31.23503113 C-27.6832129 29.97699419 -26.94391588 28.7194192 -26.2038269 27.46231079 C-25.08997495 25.57032508 -23.97847415 23.67697445 -22.86740112 21.78335571 C-18.79208484 14.84483255 -18.79208484 14.84483255 -17.68725586 13.07321167 C-16.49793504 11.06591358 -16.49793504 11.06591358 -15.5199585 8.50961304 C-11.95640312 0.73783033 -8.29531315 -0.00481632 0 0 Z " fill="#4995EF" transform="translate(559.5900573730469,326.8670349121094)"/>
<path d="M0 0 C1.69543694 0.01332367 1.69543694 0.01332367 3.42512512 0.0269165 C4.70622665 0.02721863 5.98732819 0.02752075 7.30725098 0.02783203 C8.70567952 0.04825868 10.10410174 0.06912266 11.5025177 0.09039307 C12.93311778 0.09785448 14.36372809 0.10354788 15.79434204 0.10754395 C19.5576861 0.1228085 23.32041153 0.16209631 27.08351135 0.20635986 C31.59966497 0.25449404 36.11602558 0.27284278 40.63236237 0.2961731 C47.49185466 0.33494806 54.34998993 0.41159324 61.20954895 0.48101807 C61.20954895 16.98101807 61.20954895 33.48101807 61.20954895 50.48101807 C30.51954895 50.48101807 -0.17045105 50.48101807 -31.79045105 50.48101807 C-30.27676143 45.93994921 -29.04056615 42.9107587 -26.6302948 38.95367432 C-25.69298523 37.40426147 -25.69298523 37.40426147 -24.73674011 35.82354736 C-24.07383972 34.7411377 -23.41093933 33.65872803 -22.72795105 32.54351807 C-21.36721816 30.30136443 -20.00654092 28.05917703 -18.6459198 25.81695557 C-17.98511414 24.73253174 -17.32430847 23.64810791 -16.64347839 22.53082275 C-15.05080754 19.90952574 -13.47135199 17.28140301 -11.9037323 14.64508057 C-11.49582458 13.95921875 -11.08791687 13.27335693 -10.66764832 12.56671143 C-9.62000709 10.80248996 -8.57241457 9.03823958 -7.52482605 7.27398682 C-6.9524823 6.35230713 -6.38013855 5.43062744 -5.79045105 4.48101807 C-5.38787582 3.77277893 -4.9853006 3.06453979 -4.57052612 2.33483887 C-2.79045105 0.48101807 -2.79045105 0.48101807 0 0 Z " fill="#4895EF" transform="translate(452.7904510498047,464.51898193359375)"/>
<path d="M0 0 C1.70209877 0.00333092 1.70209877 0.00333092 3.43858337 0.00672913 C4.71983597 0.00680466 6.00108856 0.00688019 7.32116699 0.00695801 C8.73001646 0.01206542 10.13886554 0.01728143 11.54771423 0.02259827 C12.98118033 0.02446249 14.41464706 0.02588637 15.84811401 0.02688599 C19.62765755 0.03071079 23.40716288 0.04054075 27.18669128 0.05158997 C31.71793579 0.06359972 36.24919305 0.0682065 40.78044891 0.07404327 C47.67034521 0.08375254 54.56015761 0.10290931 61.45005798 0.12025452 C61.45005798 16.62025452 61.45005798 33.12025452 61.45005798 50.12025452 C30.76005798 50.12025452 0.07005798 50.12025452 -31.54994202 50.12025452 C-30.13385716 45.87199994 -29.24082087 43.28056272 -26.96791077 39.71400452 C-26.45389709 38.89770569 -25.93988342 38.08140686 -25.41029358 37.2403717 C-24.85825256 36.37573303 -24.30621155 35.51109436 -23.73744202 34.62025452 C-18.19937241 25.82523519 -12.84823609 16.93759767 -7.60145569 7.96595764 C-7.08429993 7.08359436 -6.56714417 6.20123108 -6.03431702 5.29212952 C-5.57766663 4.50934631 -5.12101624 3.72656311 -4.65052795 2.9200592 C-2.94997531 0.13911997 -2.94997531 0.13911997 0 0 Z " fill="#4995EF" transform="translate(502.54994201660156,395.87974548339844)"/>
<path d="M0 0 C5.73375 -0.061875 11.4675 -0.12375 17.375 -0.1875 C19.16341309 -0.21481201 20.95182617 -0.24212402 22.79443359 -0.27026367 C35.37161713 -0.38349233 45.71034738 1.10948918 56 9 C62.68712716 15.92645592 65.56434367 23.31231203 65.4375 32.8125 C65.42992676 33.60567627 65.42235352 34.39885254 65.41455078 35.21606445 C65.23951992 41.457767 64.28528335 46.59383752 61 52 C60.63390625 52.6290625 60.2678125 53.258125 59.890625 53.90625 C55.31360281 60.34798493 46.30180276 64.59254131 38.81396484 66.58032227 C35.08352357 67.13668428 31.39817209 67.12325534 27.63671875 67.09765625 C26.93405884 67.09664917 26.23139893 67.09564209 25.50744629 67.09460449 C22.90078075 67.08940101 20.29413861 67.07543987 17.6875 67.0625 C11.850625 67.041875 6.01375 67.02125 0 67 C0 44.89 0 22.78 0 0 Z " fill="#171E4D" transform="translate(563,567)"/>
<path d="M0 0 C30.03 0 60.06 0 91 0 C89.35815022 4.10462445 87.63199642 7.52216634 85.40234375 11.3046875 C85.05172379 11.90150833 84.70110382 12.49832916 84.33985901 13.11323547 C83.20913028 15.03584421 82.07342724 16.95545896 80.9375 18.875 C80.16251265 20.19036512 79.3877734 21.50587645 78.61328125 22.8215332 C73.93958584 30.75335315 69.23638925 38.66719545 64.46875 46.54296875 C63.02214488 48.89315771 63.02214488 48.89315771 62 51 C41.54 51 21.08 51 0 51 C0 34.17 0 17.34 0 0 Z " fill="#160C72" transform="translate(439,327)"/>
<path d="M0 0 C30.03 0 60.06 0 91 0 C89.42620609 3.93448477 87.84716617 7.1299976 85.69140625 10.7265625 C85.02560547 11.84289062 84.35980469 12.95921875 83.67382812 14.109375 C82.97026772 15.28137948 82.26649209 16.45325478 81.5625 17.625 C80.55457492 19.30912798 79.54671247 20.99330602 78.54566956 22.68153381 C77.84216872 23.85150724 77.12319895 25.01229745 76.39024353 26.16404724 C74.16887569 29.71898007 72.53184306 33.1390534 71.12524414 37.09399414 C68.9776684 42.56850771 66.84826059 47.44221261 62 51 C52.60367777 53.9428098 42.21273649 52.87868382 32.50384521 52.30462646 C28.83866511 52.10872416 25.17091908 52.02212839 21.50195312 51.92773438 C14.32139589 51.73509022 7.18200726 51.36410413 0 51 C0 34.17 0 17.34 0 0 Z " fill="#160B72" transform="translate(389,396)"/>
<path d="M0 0 C30.03 0 60.06 0 91 0 C85.37579348 11.24841303 85.37579348 11.24841303 82.546875 15.91796875 C81.92683594 16.94599609 81.30679688 17.97402344 80.66796875 19.03320312 C80.03503906 20.07412109 79.40210938 21.11503906 78.75 22.1875 C77.49474955 24.26429746 76.23954174 26.34112069 74.984375 28.41796875 C74.31140381 29.46251221 73.63843262 30.50705566 72.94506836 31.58325195 C71.4306693 34.24347724 70.52821483 36.26476673 69.61938477 39.11010742 C67.95265106 43.68713603 66.25099592 47.36416708 62 50 C52.54029093 52.40087543 42.31267315 51.47863354 32.64117432 51.02996826 C28.96195715 50.87558482 25.28116627 50.80699724 21.59960938 50.73242188 C14.39156445 50.58018212 7.20894367 50.28699717 0 50 C0 33.5 0 17 0 0 Z " fill="#130870" transform="translate(339,465)"/>
<path d="M0 0 C0.639375 0.598125 1.27875 1.19625 1.9375 1.8125 C1.9375 -0.1675 1.9375 -2.1475 1.9375 -4.1875 C5.5675 -4.1875 9.1975 -4.1875 12.9375 -4.1875 C13.01196666 2.76844982 13.06625215 9.72416468 13.10229492 16.68041992 C13.11732941 19.04406784 13.13776242 21.40768811 13.16381836 23.77124023 C13.20043645 27.17959441 13.21728031 30.58757792 13.23046875 33.99609375 C13.24595261 35.04333115 13.26143646 36.09056854 13.27738953 37.16954041 C13.27910072 44.7240704 12.12835629 50.95659294 8.375 57.5625 C0.46076666 64.86794616 -8.71064909 66.2779423 -19.08203125 66.1015625 C-26.47643441 65.56457935 -33.27859624 63.53985928 -39.0625 58.8125 C-37.75025452 54.87576356 -36.14339673 52.58530706 -33.0625 49.8125 C-32.51980469 50.08964844 -31.97710937 50.36679687 -31.41796875 50.65234375 C-30.70253906 51.01457031 -29.98710937 51.37679687 -29.25 51.75 C-28.54230469 52.10964844 -27.83460938 52.46929688 -27.10546875 52.83984375 C-20.46822017 55.99983399 -12.39961894 55.79062107 -5.4375 53.75 C-2.21138506 51.11816939 -1.27001256 48.77045784 -0.0625 44.8125 C0.19019417 41.51964899 0.19019417 41.51964899 -0.0625 38.8125 C-0.990625 39.451875 -1.91875 40.09125 -2.875 40.75 C-9.57546657 45.08559601 -17.79943244 44.72599421 -25.515625 43.38671875 C-31.7483022 41.38686366 -36.25317437 37.08956766 -39.38671875 31.4140625 C-42.83977189 23.53867814 -43.05015063 17.02131414 -40.02734375 8.9140625 C-36.94332283 2.19664041 -31.65340513 -1.35476509 -25.0625 -4.1875 C-16.00440812 -6.39645186 -7.65437635 -5.46741168 0 0 Z " fill="#131A4B" transform="translate(402.0625,587.1875)"/>
<path d="M0 0 C10 0 10 0 13.1015625 2.4921875 C13.97390439 3.59583468 14.81434907 4.72527719 15.625 5.875 C16.08535645 6.47143311 16.54571289 7.06786621 17.02001953 7.68237305 C17.94596258 8.88551848 18.85955228 10.09828478 19.75976562 11.32080078 C21.39855121 13.53961323 23.13425451 15.67313843 24.875 17.8125 C25.49503906 18.59496094 26.11507812 19.37742187 26.75390625 20.18359375 C30.30796238 24.64007108 33.91650583 29.05228522 37.52099609 33.46801758 C38.0567627 34.12568115 38.5925293 34.78334473 39.14453125 35.4609375 C39.62253174 36.04665527 40.10053223 36.63237305 40.59301758 37.23583984 C42.10106893 39.12672637 43.54883445 41.0651126 45 43 C45.33 28.81 45.66 14.62 46 0 C50.29 0 54.58 0 59 0 C59 22.11 59 44.22 59 67 C48 67 48 67 44.90625 64.39453125 C44.06905982 63.22486841 43.2680485 62.02868258 42.5 60.8125 C41.58616255 59.51492994 40.66942138 58.2194007 39.75 56.92578125 C39.29625 56.26658691 38.8425 55.60739258 38.375 54.92822266 C36.26053177 51.96301135 33.89170609 49.24261441 31.5 46.5 C27.01960938 41.28269772 22.73872756 35.92848904 18.52734375 30.4921875 C16.76360715 28.21927694 15.03677958 26.03677958 13 24 C12.67 38.19 12.34 52.38 12 67 C8.04 67 4.08 67 0 67 C0 44.89 0 22.78 0 0 Z " fill="#141B4B" transform="translate(642,567)"/>
<path d="M0 0 C4.29 0 8.58 0 13 0 C16.66120141 8.14993464 20.31646423 16.30249402 23.96630859 24.45751953 C25.37154517 27.59711863 26.77834464 30.73601215 28.18603516 33.87451172 C30.03690436 38.00188185 31.8837175 42.13104746 33.72802734 46.26135254 C34.45148941 47.87985869 35.17626376 49.49777889 35.90234375 51.1151123 C36.9240496 53.39161235 37.9410837 55.67014429 38.95703125 57.94921875 C39.2657869 58.63439072 39.57454254 59.31956268 39.89265442 60.02549744 C42 64.77190602 42 64.77190602 42 67 C37.71 67 33.42 67 29 67 C27.9955866 64.7101766 26.99632388 62.4183401 26 60.125 C25.71382812 59.47402344 25.42765625 58.82304688 25.1328125 58.15234375 C23 53.2265625 23 53.2265625 23 51 C11.78 51 0.56 51 -11 51 C-11.33 52.65 -11.66 54.3 -12 56 C-13.53666361 59.73333685 -15.28214923 63.34406118 -17 67 C-21.29 67 -25.58 67 -30 67 C-22.9435951 50.12343162 -15.34620254 33.50705913 -7.70507812 16.8896637 C-5.12009384 11.2672808 -2.55545782 5.63587403 0 0 Z " fill="#131A4B" transform="translate(739,567)"/>
<path d="M0 0 C4.64699944 4.38780425 8.05052847 9.22104185 8.6875 15.75 C8.6875 18.39 8.6875 21.03 8.6875 23.75 C-4.5125 23.75 -17.7125 23.75 -31.3125 23.75 C-28.16263246 31.32250321 -28.16263246 31.32250321 -22.3125 34.75 C-16.50536514 35.50390874 -9.58397115 36.25132356 -4.5625 32.75 C-3.82 32.09 -3.0775 31.43 -2.3125 30.75 C-1.6525 30.75 -0.9925 30.75 -0.3125 30.75 C1.4018618 32.70927063 3.07155168 34.70880212 4.6875 36.75 C2.88603696 40.96542352 0.79476734 42.66119922 -3.22265625 44.7578125 C-11.53231836 47.42614901 -22.08380088 47.33179201 -30.0625 43.6875 C-36.1300316 39.96970095 -40.62277543 34.94097861 -42.83984375 28.1171875 C-44.32508532 20.67870492 -44.49665721 13.02275432 -40.50390625 6.38671875 C-36.35373672 0.68533831 -30.56359822 -3.86839308 -23.8125 -6.0625 C-14.58967441 -6.75421192 -7.35707044 -6.07401919 0 0 Z " fill="#141A4B" transform="translate(317.3125,588.25)"/>
<path d="M0 0 C3.63 0 7.26 0 11 0 C11.33 7.92 11.66 15.84 12 24 C14.64 22.35 17.28 20.7 20 19 C26.23309521 16.9223016 32.95635066 17.53777249 39 20 C44.4685109 23.65323757 47.90072468 27.70992467 49.56420898 34.2019043 C50.11120705 37.71403028 50.12393303 41.16346047 50.09765625 44.70703125 C50.0962413 45.43242599 50.09482635 46.15782074 50.09336853 46.90519714 C50.08779931 49.2076745 50.07525261 51.51005235 50.0625 53.8125 C50.05748102 55.37955588 50.05291881 56.9466133 50.04882812 58.51367188 C50.03783998 62.34248589 50.02059673 66.17122611 50 70 C46.04 70 42.08 70 38 70 C37.98541748 69.0620459 37.97083496 68.1240918 37.95581055 67.15771484 C37.89453283 63.65730621 37.82034068 60.15765551 37.73754883 56.65771484 C37.70442074 55.14675096 37.67635145 53.63566693 37.65356445 52.12451172 C37.61979319 49.94446918 37.56747104 47.76551561 37.51171875 45.5859375 C37.48553467 44.2767334 37.45935059 42.9675293 37.43237305 41.61865234 C36.9723192 37.76833151 36.00307114 35.29855909 34 32 C29.84500884 28.99389413 24.90270269 29.62653642 20 30 C17.04023328 30.4951208 17.04023328 30.4951208 15 32 C12.83542308 36.13635168 12.66184456 40.1331844 12.5859375 44.70703125 C12.56657135 45.43242599 12.5472052 46.15782074 12.5272522 46.90519714 C12.46777892 49.20751422 12.42120155 51.50988219 12.375 53.8125 C12.33679042 55.37957832 12.29773697 56.94663631 12.2578125 58.51367188 C12.16210437 62.34228152 12.07795552 66.17098942 12 70 C8.04 70 4.08 70 0 70 C0 46.9 0 23.8 0 0 Z " fill="#151C4C" transform="translate(431,564)"/>
<path d="M0 0 C5.383125 -0.1546875 5.383125 -0.1546875 10.875 -0.3125 C11.98472168 -0.35802002 13.09444336 -0.40354004 14.23779297 -0.45043945 C22.06334069 -0.5579523 28.74896888 1.1020696 34.65185547 6.51464844 C39.84182739 12.47343547 40.38817401 17.08421457 40.25 24.8046875 C39.74345742 31.27893488 36.97051405 36.69650091 32 41 C25.19240281 45.25463443 18.77430259 45.50507559 10.9375 45.25 C7.328125 45.1675 3.71875 45.085 0 45 C0 30.15 0 15.3 0 0 Z " fill="#FDFDFD" transform="translate(576,578)"/>
<path d="M0 0 C15.84 0 31.68 0 48 0 C48 3.63 48 7.26 48 11 C36.12 11 24.24 11 12 11 C12 17.6 12 24.2 12 31 C22.56 31 33.12 31 44 31 C44 34.3 44 37.6 44 41 C33.44 41 22.88 41 12 41 C12 49.58 12 58.16 12 67 C8.04 67 4.08 67 0 67 C0 44.89 0 22.78 0 0 Z " fill="#11194A" transform="translate(181,567)"/>
<path d="M0 0 C3.96 0 7.92 0 12 0 C12 3.63 12 7.26 12 11 C13.39025391 10.98259766 13.39025391 10.98259766 14.80859375 10.96484375 C16.00613281 10.95582031 17.20367188 10.94679688 18.4375 10.9375 C19.63246094 10.92589844 20.82742188 10.91429687 22.05859375 10.90234375 C25 11 25 11 26 12 C26.14193337 15.00331018 26.04236378 17.99217134 26 21 C21.38 21 16.76 21 12 21 C12.05986636 25.41813735 12.14685827 29.83284319 12.25 34.25 C12.26417969 35.50425781 12.27835937 36.75851562 12.29296875 38.05078125 C12.32519531 39.25605469 12.35742188 40.46132813 12.390625 41.703125 C12.41157227 42.81333008 12.43251953 43.92353516 12.45410156 45.06738281 C13.11392723 48.61202768 14.16945607 49.82991632 17 52 C19.37462791 52.26978939 19.37462791 52.26978939 21.75 51.75 C22.54921875 51.62109375 23.3484375 51.4921875 24.171875 51.359375 C24.77515625 51.24078125 25.3784375 51.1221875 26 51 C26.99 53.64 27.98 56.28 29 59 C25.80857378 62.19142622 22.70127709 62.65845181 18.375 63 C13.42428898 63 9.43735788 61.89435601 5.1875 59.25 C0.65251456 54.58544355 -0.37485889 50.23899371 -0.29296875 43.8515625 C-0.28872391 43.19417084 -0.28447906 42.53677917 -0.28010559 41.85946655 C-0.26344977 39.78087609 -0.2258262 37.70329226 -0.1875 35.625 C-0.17243605 34.20704536 -0.15875065 32.78907536 -0.14648438 31.37109375 C-0.11359038 27.9137411 -0.06190165 24.45696897 0 21 C-2.64 21 -5.28 21 -8 21 C-8 17.7 -8 14.4 -8 11 C-5.36 11 -2.72 11 0 11 C0 7.37 0 3.74 0 0 Z " fill="#151C4C" transform="translate(497,572)"/>
<path d="M0 0 C3.96 0 7.92 0 12 0 C12.33 1.65 12.66 3.3 13 5 C13.969375 4.175 14.93875 3.35 15.9375 2.5 C20.32533816 -0.69197243 23.70240154 -0.40750757 29 0 C29 3.3 29 6.6 29 10 C27.618125 10.2475 26.23625 10.495 24.8125 10.75 C20.0092125 11.82243212 16.67330923 13.44448125 13.89697266 17.68457031 C12.65728036 20.88469054 12.67020244 23.74510091 12.5859375 27.171875 C12.56657135 27.8542926 12.5472052 28.53671021 12.5272522 29.23980713 C12.46768902 31.40974608 12.42116554 33.57973877 12.375 35.75 C12.33679869 37.22528297 12.2977457 38.70054415 12.2578125 40.17578125 C12.16200765 43.78365418 12.07789084 47.39169083 12 51 C8.04 51 4.08 51 0 51 C0 34.17 0 17.34 0 0 Z " fill="#141C4C" transform="translate(239,583)"/>
<path d="M0 0 C4.27421176 1.49972343 6.68223141 3.09638974 9 7 C10.67009208 12.01027625 10.57792698 16.33043317 8.875 21.25 C6.49773376 24.73665715 4.85432136 26.21049365 1 28 C-5.26219117 28.82936758 -10.63763921 28.61959354 -16 25 C-18.85360551 22.75788138 -19.97492976 20.4694685 -21 17 C-21.46077591 12.77622083 -21.31341845 10.59201262 -19.3125 6.8125 C-13.46838006 -0.29521344 -9.03847608 -1.01652238 0 0 Z " fill="#FBFBFC" transform="translate(393,593)"/>
<path d="M0 0 C3.96 0 7.92 0 12 0 C12 16.83 12 33.66 12 51 C8.04 51 4.08 51 0 51 C0 34.17 0 17.34 0 0 Z " fill="#141B4B" transform="translate(337,583)"/>
<path d="M0 0 C3.71462076 3.71462076 5.14232809 9.13632391 7.125 13.9375 C7.82689453 15.60329102 7.82689453 15.60329102 8.54296875 17.30273438 C8.98511719 18.36685547 9.42726563 19.43097656 9.8828125 20.52734375 C10.28902832 21.50437256 10.69524414 22.48140137 11.11376953 23.48803711 C12 26 12 26 12 29 C4.08 29 -3.84 29 -12 29 C-8.62080262 18.86240786 -8.62080262 18.86240786 -6.9921875 15 C-6.64542969 14.17628906 -6.29867187 13.35257813 -5.94140625 12.50390625 C-5.58949219 11.67761719 -5.23757813 10.85132813 -4.875 10 C-4.51535156 9.14277344 -4.15570312 8.28554688 -3.78515625 7.40234375 C-1.13188959 1.13188959 -1.13188959 1.13188959 0 0 Z " fill="#F5F5F7" transform="translate(745,580)"/>
<path d="M0 0 C0.99 0.66 1.98 1.32 3 2 C3 1.34 3 0.68 3 0 C3.99 0 4.98 0 6 0 C6.11667875 3.22886009 6.18740546 6.45717445 6.25 9.6875 C6.30027344 11.05551758 6.30027344 11.05551758 6.3515625 12.45117188 C6.41507561 16.81769795 6.43722486 19.28725121 4.109375 23.08203125 C0.75391196 26.13301709 -1.50505917 26.20904492 -6.0234375 26.16796875 C-8.37915131 25.96777963 -10.03599056 25.30933963 -12 24 C-11.67 23.01 -11.34 22.02 -11 21 C-10.34 21.33 -9.68 21.66 -9 22 C-7.3146804 22.09534254 -5.62550734 22.12985758 -3.9375 22.125 C-3.03902344 22.12757813 -2.14054687 22.13015625 -1.21484375 22.1328125 C0.97378893 22.24738223 0.97378893 22.24738223 2 21 C2.04063832 19.33382885 2.042721 17.66611905 2 16 C1.01 16.66 0.02 17.32 -1 18 C-5.21178243 18.46797583 -7.28599114 18.46565795 -10.875 16.125 C-13.5873239 13.4126761 -13.93914093 12.53758847 -14.375 8.6875 C-14 5 -14 5 -12.0625 2.0625 C-8.04468984 -0.64337215 -4.73089406 -0.84163846 0 0 Z " fill="#232323" transform="translate(428,665)"/>
<path d="M0 0 C3.73716178 0.87853713 5.13010387 2.29902003 7.16015625 5.5078125 C7.90859858 8.69157104 7.96431706 11.33137731 7.16015625 14.5078125 C4.12393229 18.1364704 2.25291875 19.31609978 -2.40234375 20.1328125 C-6.69891582 19.35161758 -8.12986458 17.85543382 -10.83984375 14.5078125 C-12.29132278 11.60485445 -12.212234 9.73519471 -11.83984375 6.5078125 C-8.73817728 1.10490961 -6.27696217 -0.48203716 0 0 Z " fill="#F6F6F6" transform="translate(388.83984375,664.4921875)"/>
<path d="M0 0 C3.21778169 2.24496397 4.82575564 4.43793348 6.6875 7.875 C6.6875 8.865 6.6875 9.855 6.6875 10.875 C-2.5525 10.875 -11.7925 10.875 -21.3125 10.875 C-20.31858894 5.90544471 -19.65861791 4.41232465 -16.3125 0.875 C-11.11122369 -2.26539324 -5.61775597 -1.90791712 0 0 Z " fill="#F9F9FA" transform="translate(307.3125,593.125)"/>
<path d="M0 0 C0.99 0.66 1.98 1.32 3 2 C3.76955603 8.81606765 3.76955603 8.81606765 1.375 12.5 C-1.72140596 14.45562482 -3.39853135 14.60024477 -7 14 C-9.375 12.4375 -9.375 12.4375 -11 10 C-11.5625 6.5 -11.5625 6.5 -11 3 C-7.49431284 -1.12433783 -5.09668729 -1.5511657 0 0 Z " fill="#181E4E" transform="translate(347,561)"/>
<path d="M0 0 C2.4375 1.625 2.4375 1.625 4 4 C4.61195145 7.6717087 4.48706506 9.28813568 2.375 12.375 C-0.71186432 14.48706506 -2.3282913 14.61195145 -6 14 C-8.375 12.4375 -8.375 12.4375 -10 10 C-10.42519574 6.53769185 -10.63902633 4.1652833 -8.9375 1.0625 C-5.8347167 -0.63902633 -3.46230815 -0.42519574 0 0 Z " fill="#F3F3F3" transform="translate(427,667)"/>
<path d="M0 0 C3.73716178 0.87853713 5.13010387 2.29902003 7.16015625 5.5078125 C7.90859858 8.69157104 7.96431706 11.33137731 7.16015625 14.5078125 C4.12393229 18.1364704 2.25291875 19.31609978 -2.40234375 20.1328125 C-6.69891582 19.35161758 -8.12986458 17.85543382 -10.83984375 14.5078125 C-12.29132278 11.60485445 -12.212234 9.73519471 -11.83984375 6.5078125 C-8.73817728 1.10490961 -6.27696217 -0.48203716 0 0 Z M-7.77734375 4.0703125 C-9.23327704 7.41039474 -9.23299005 9.90397144 -8.83984375 13.5078125 C-7.98764452 15.61023694 -7.98764452 15.61023694 -5.83984375 16.5078125 C-3.07983901 16.96781329 -0.59579601 17.01201998 2.16015625 16.5078125 C4.41478874 15.0849861 4.41478874 15.0849861 5.16015625 12.5078125 C5.04003849 9.08445624 4.76741778 6.55365181 3.03515625 3.5703125 C-0.60947389 1.50502209 -4.48848259 1.41800511 -7.77734375 4.0703125 Z " fill="#0D0D0D" transform="translate(388.83984375,664.4921875)"/>
<path d="M0 0 C0.99 0 1.98 0 3 0 C3 7.59 3 15.18 3 23 C7.62 23 12.24 23 17 23 C17 23.99 17 24.98 17 26 C11.39 26 5.78 26 0 26 C0 17.42 0 8.84 0 0 Z " fill="#272727" transform="translate(344,658)"/>
<path d="M0 0 C0.91007813 0.00902344 1.82015625 0.01804687 2.7578125 0.02734375 C3.45648437 0.03894531 4.15515625 0.05054688 4.875 0.0625 C5.205 1.0525 5.535 2.0425 5.875 3.0625 C2.575 3.0625 -0.725 3.0625 -4.125 3.0625 C-4.125 4.3825 -4.125 5.7025 -4.125 7.0625 C-0.825 8.0525 2.475 9.0425 5.875 10.0625 C6.205 11.7125 6.535 13.3625 6.875 15.0625 C4.875 18.0625 4.875 18.0625 1.875 19.0625 C-5.14386792 19.79834906 -5.14386792 19.79834906 -8.125 17.5625 C-8.455 17.0675 -8.785 16.5725 -9.125 16.0625 C-8.135 15.7325 -7.145 15.4025 -6.125 15.0625 C-5.465 15.3925 -4.805 15.7225 -4.125 16.0625 C-2.12539988 16.102492 -0.12452758 16.10596799 1.875 16.0625 C2.205 14.7425 2.535 13.4225 2.875 12.0625 C0.9878125 11.629375 0.9878125 11.629375 -0.9375 11.1875 C-3.9789399 10.48946461 -5.43169878 9.85803415 -8.125 8.0625 C-7.86938677 5.7193787 -7.53229228 3.38406597 -7.125 1.0625 C-4.60024538 -0.19987731 -2.81299534 -0.03606404 0 0 Z " fill="#242424" transform="translate(605.125,664.9375)"/>
<path d="M0 0 C0.7940625 0.01417969 1.588125 0.02835938 2.40625 0.04296875 C3.59734375 0.05263672 3.59734375 0.05263672 4.8125 0.0625 C6.90625 0.23046875 6.90625 0.23046875 8.90625 1.23046875 C8.90625 1.89046875 8.90625 2.55046875 8.90625 3.23046875 C5.60625 3.23046875 2.30625 3.23046875 -1.09375 3.23046875 C-1.09375 4.55046875 -1.09375 5.87046875 -1.09375 7.23046875 C-0.46726562 7.35164062 0.15921875 7.4728125 0.8046875 7.59765625 C1.62195313 7.76523437 2.43921875 7.9328125 3.28125 8.10546875 C4.09335937 8.26789062 4.90546875 8.4303125 5.7421875 8.59765625 C7.90625 9.23046875 7.90625 9.23046875 9.90625 11.23046875 C9.71875 14.23046875 9.71875 14.23046875 8.90625 17.23046875 C5.90886059 19.22872836 5.27277492 19.50597273 1.90625 19.48046875 C0.8853125 19.48820313 0.8853125 19.48820313 -0.15625 19.49609375 C-2.09375 19.23046875 -2.09375 19.23046875 -5.09375 17.23046875 C-5.09375 16.57046875 -5.09375 15.91046875 -5.09375 15.23046875 C-4.39507812 15.30265625 -3.69640625 15.37484375 -2.9765625 15.44921875 C-2.06648438 15.54203125 -1.15640625 15.63484375 -0.21875 15.73046875 C0.68617188 15.82328125 1.59109375 15.91609375 2.5234375 16.01171875 C4.83938211 16.2609417 4.83938211 16.2609417 6.90625 16.23046875 C6.75061087 14.25991033 6.75061087 14.25991033 5.90625 12.23046875 C3.88993284 11.16396094 3.88993284 11.16396094 1.46875 10.60546875 C-2.91494205 9.4092767 -2.91494205 9.4092767 -5.09375 7.23046875 C-4.718219 3.47515874 -4.26222678 0.46916302 0 0 Z " fill="#141414" transform="translate(482.09375,664.76953125)"/>
<path d="M0 0 C0.99 0.66 1.98 1.32 3 2 C2.67 2.99 2.34 3.98 2 5 C1.01 4.34 0.02 3.68 -1 3 C-4.0875593 2.67837924 -6.14015561 2.51275485 -8.875 4.0625 C-10.61973477 7.06732099 -10.30835443 9.60810131 -10 13 C-8.00689456 15.44931491 -8.00689456 15.44931491 -4.0625 15.125 C-2.70815609 15.08955922 -1.35394774 15.04825952 0 15 C0.99 15 1.98 15 3 15 C0.62054913 18.04569711 -0.55858118 18.92776783 -4.4375 19.5625 C-8.86029058 18.86416465 -10.22561165 17.42718561 -13 14 C-14.42662219 11.14675563 -14.31033868 9.16545451 -14 6 C-10.16354318 0.24531476 -6.81762748 -0.79651489 0 0 Z " fill="#242424" transform="translate(576,665)"/>
<path d="M0 0 C0.99 0 1.98 0 3 0 C3 1.32 3 2.64 3 4 C4.98 4 6.96 4 9 4 C9 4.66 9 5.32 9 6 C7.02 6 5.04 6 3 6 C3.33 10.29 3.66 14.58 4 19 C5.98 19.66 7.96 20.32 10 21 C8 23 8 23 5.5625 23.375 C3 23 3 23 1.3515625 21.3984375 C-0.44699479 18.20677803 -0.29665201 15.8884004 -0.1875 12.25 C-0.16042969 11.07953125 -0.13335937 9.9090625 -0.10546875 8.703125 C-0.07066406 7.81109375 -0.03585937 6.9190625 0 6 C-0.99 6 -1.98 6 -3 6 C-3 5.34 -3 4.68 -3 4 C-2.01 4 -1.02 4 0 4 C0 2.68 0 1.36 0 0 Z " fill="#1D1D1D" transform="translate(511,661)"/>
<path d="M0 0 C0.99 0.66 1.98 1.32 3 2 C2.67 2.99 2.34 3.98 2 5 C1.01 4.34 0.02 3.68 -1 3 C-5.10925941 2.54090203 -5.10925941 2.54090203 -8.75 4.1875 C-10.24270809 6.35192673 -11.13051518 8.52531245 -12 11 C-12.33 11 -12.66 11 -13 11 C-13.60247445 4.73426573 -13.60247445 4.73426573 -11 1.5625 C-6.92234607 -0.56127809 -4.57125835 -0.44237984 0 0 Z " fill="#0F0F0F" transform="translate(576,665)"/>
<path d="M0 0 C3 2 3 2 3.75 5 C4.1625 5.99 4.575 6.98 5 8 C8.51190809 9.22969878 8.51190809 9.22969878 12 10 C12.33 10.99 12.66 11.98 13 13 C9.8125 13.3125 9.8125 13.3125 6 13 C3.36983839 10.8272578 1.52663106 9.05326212 0 6 C-0.039992 4.00039988 -0.04346799 1.99952758 0 0 Z " fill="#303030" transform="translate(377,671)"/>
<path d="M0 0 C-0.33 0.66 -0.66 1.32 -1 2 C-3.33247761 2.33926947 -5.66585471 2.67240066 -8 3 C-10.5654594 5.5654594 -10.54046087 7.47686668 -11 11 C-11.66 11 -12.32 11 -13 11 C-13.47633136 4.80769231 -13.47633136 4.80769231 -11.5625 1.5625 C-7.78993176 -0.73784649 -4.30933841 -0.33148757 0 0 Z " fill="#0D0D0D" transform="translate(428,665)"/>
<path d="M0 0 C0.66 0 1.32 0 2 0 C0.25 4.875 0.25 4.875 -2 6 C-9.46666667 6.35555556 -9.46666667 6.35555556 -13 4 C-13 3.34 -13 2.68 -13 2 C-11.96939453 2.16048828 -11.96939453 2.16048828 -10.91796875 2.32421875 C-9.56638672 2.50404297 -9.56638672 2.50404297 -8.1875 2.6875 C-7.29417969 2.81511719 -6.40085937 2.94273437 -5.48046875 3.07421875 C-2.93639221 3.26046094 -2.93639221 3.26046094 -1.30078125 1.51953125 C-0.87152344 1.01808594 -0.44226563 0.51664063 0 0 Z " fill="#151515" transform="translate(490,678)"/>
<path d="M0 0 C0.91007813 0.00902344 1.82015625 0.01804687 2.7578125 0.02734375 C3.45648437 0.03894531 4.15515625 0.05054688 4.875 0.0625 C5.205 1.0525 5.535 2.0425 5.875 3.0625 C4.86179687 3.02769531 4.86179687 3.02769531 3.828125 2.9921875 C2.93609375 2.97414063 2.0440625 2.95609375 1.125 2.9375 C0.24328125 2.91429687 -0.6384375 2.89109375 -1.546875 2.8671875 C-4.2385858 3.07110498 -5.82404974 3.69698279 -8.125 5.0625 C-7.75 3.125 -7.75 3.125 -7.125 1.0625 C-4.60024538 -0.19987731 -2.81299534 -0.03606404 0 0 Z " fill="#191919" transform="translate(605.125,664.9375)"/>
<path d="M0 0 C0.66 0 1.32 0 2 0 C2.48842105 7.32631579 2.48842105 7.32631579 0.1875 10.5 C-2 12 -2 12 -5 12 C-5 11.34 -5 10.68 -5 10 C-4.360625 9.4225 -3.72125 8.845 -3.0625 8.25 C-0.55649582 5.51617726 -0.33019491 3.63214398 0 0 Z " fill="#0A0A0A" transform="translate(394,671)"/>
<path d="M0 0 C0.66 0 1.32 0 2 0 C2.33 0.99 2.66 1.98 3 3 C4.65 3.33 6.3 3.66 8 4 C8 4.99 8 5.98 8 7 C4.26512223 6.5020163 2.18762365 6.12508244 -1 4 C-0.67 2.68 -0.34 1.36 0 0 Z " fill="#2E2E2E" transform="translate(598,669)"/>
<path d="M0 0 C0.66 0.66 1.32 1.32 2 2 C-0.71182212 4.60334924 -1.89133813 4.99456691 -5.75 5.1875 C-6.8225 5.125625 -7.895 5.06375 -9 5 C-8.67 4.01 -8.34 3.02 -8 2 C-6.865625 1.855625 -5.73125 1.71125 -4.5625 1.5625 C-1.19222799 1.38828522 -1.19222799 1.38828522 0 0 Z " fill="#303030" transform="translate(577,679)"/>
<path d="M0 0 C5.625 -0.25 5.625 -0.25 9 2 C8.67 2.99 8.34 3.98 8 5 C7.01 4.34 6.02 3.68 5 3 C3.0103005 2.60986284 1.00980131 2.26797351 -1 2 C-0.67 1.34 -0.34 0.68 0 0 Z " fill="#171717" transform="translate(570,665)"/>
<path d="M0 0 C3.63 0.66 7.26 1.32 11 2 C7 5 7 5 3.75 4.6875 C2.8425 4.460625 1.935 4.23375 1 4 C0.67 2.68 0.34 1.36 0 0 Z " fill="#434343" transform="translate(416,686)"/>
<path d="M0 0 C0.598125 0.268125 1.19625 0.53625 1.8125 0.8125 C2.1425 1.8025 2.4725 2.7925 2.8125 3.8125 C2.1525 3.8125 1.4925 3.8125 0.8125 3.8125 C0.4825 4.4725 0.1525 5.1325 -0.1875 5.8125 C-0.5175 4.8225 -0.8475 3.8325 -1.1875 2.8125 C-2.8375 2.4825 -4.4875 2.1525 -6.1875 1.8125 C-3.93528616 0.44508445 -2.66192242 -0.22816478 0 0 Z " fill="#313131" transform="translate(489.1875,674.1875)"/>
<path d="M0 0 C6.75 -0.125 6.75 -0.125 9 1 C9 1.66 9 2.32 9 3 C5.7 2.67 2.4 2.34 -1 2 C-0.67 1.34 -0.34 0.68 0 0 Z " fill="#0E0E0E" transform="translate(482,665)"/>
<path d="M0 0 C2.31 0.33 4.62 0.66 7 1 C6.67 2.65 6.34 4.3 6 6 C4 4 2 2 0 0 Z " fill="#0C0C0C" transform="translate(604,674)"/>
<path d="M0 0 C0.66 0.33 1.32 0.66 2 1 C1.1875 3.4375 1.1875 3.4375 0 6 C-0.99 6.33 -1.98 6.66 -3 7 C-2.25 2.25 -2.25 2.25 0 0 Z " fill="#202020" transform="translate(480,665)"/>
<path d="M0 0 C1.9375 0.8125 1.9375 0.8125 4 2 C4.33 2.99 4.66 3.98 5 5 C4.01 5.33 3.02 5.66 2 6 C1.01 4.35 0.02 2.7 -1 1 C-0.67 0.67 -0.34 0.34 0 0 Z " fill="#252525" transform="translate(391,666)"/>
</svg>
